<?xml version="1.0" encoding="utf-8"?>
<!-- Generator: Adobe Illustrator 16.0.0, SVG Export Plug-In . SVG Version: 6.00 Build 0)  -->
<!DOCTYPE svg PUBLIC "-//W3C//DTD SVG 1.1//EN" "http://www.w3.org/Graphics/SVG/1.1/DTD/svg11.dtd">
<svg version="1.1" id="Слой_1" xmlns="http://www.w3.org/2000/svg" xmlns:xlink="http://www.w3.org/1999/xlink" x="0px" y="0px"
	 width="1630.45px" height="678.134px" viewBox="0 0 1630.45 678.134" enable-background="new 0 0 1630.45 678.134"
	 xml:space="preserve">
<g>
	<path fill="#DDDCDC" d="M966.604,191.86l-22.209,22.449c-1.231,1.245-1.231,3.263,0,4.508s3.229,1.245,4.46,0l22.209-22.449
		c1.231-1.245,1.231-3.263,0-4.508C969.832,190.615,967.835,190.615,966.604,191.86z M9.459,518.081l-8.535,8.629
		c-1.231,1.244-1.231,3.263,0,4.508c1.231,1.244,3.228,1.244,4.459,0l8.535-8.628c1.232-1.245,1.232-3.263,0-4.509
		C12.687,516.837,10.69,516.837,9.459,518.081z M84.232,659.587l-12.964,13.105c-1.231,1.244-1.231,3.263,0,4.508
		c1.231,1.244,3.229,1.244,4.46,0l12.964-13.105c1.231-1.244,1.231-3.263,0-4.508C87.46,658.343,85.463,658.343,84.232,659.587z
		 M137.419,422.938l-7.223,7.302c-1.232,1.244-1.232,3.264,0,4.508c1.231,1.245,3.228,1.245,4.459,0l7.223-7.301
		c1.232-1.246,1.232-3.264,0-4.509C140.647,421.692,138.651,421.692,137.419,422.938z M1579.928,103.227l-33.345,33.413
		c-1.85,1.853-1.85,4.856,0,6.709c1.849,1.854,4.847,1.854,6.696,0l33.345-33.412c1.85-1.853,1.85-4.856,0-6.71
		C1584.775,101.375,1581.777,101.375,1579.928,103.227z M1443.866,131.906c-1.85-1.853-4.848-1.853-6.696,0l-12.814,12.841
		c-1.85,1.853-1.85,4.857,0,6.71c1.849,1.853,4.847,1.853,6.695,0l12.815-12.84C1445.715,136.763,1445.715,133.758,1443.866,131.906
		z M1629.063,280.612c-1.849-1.853-4.847-1.853-6.695,0l-19.466,19.504c-1.849,1.853-1.849,4.857,0,6.709
		c1.85,1.853,4.848,1.853,6.696,0l19.465-19.504C1630.913,285.469,1630.913,282.464,1629.063,280.612z M1449.598,333.275
		c-1.555-1.558-4.075-1.558-5.631,0l-5.839,5.851c-1.555,1.558-1.555,4.083,0,5.642l1.064,1.067c1.556,1.558,4.076,1.558,5.631,0
		l5.84-5.851c1.555-1.558,1.555-4.084,0-5.643L1449.598,333.275z M1587.635,1.39l-10.845,10.867c-1.85,1.853-1.85,4.856,0,6.709
		c1.849,1.853,4.847,1.853,6.695,0l10.846-10.867c1.849-1.853,1.849-4.856,0-6.709C1592.481-0.463,1589.483-0.463,1587.635,1.39z
		 M513.74,125.783c-1.036-1.047-2.715-1.047-3.75,0l-3.889,3.931c-1.036,1.046-1.036,2.743,0,3.791l0.709,0.717
		c1.036,1.047,2.714,1.047,3.75,0l3.889-3.932c1.036-1.046,1.036-2.743,0-3.791L513.74,125.783z"/>
</g>
</svg>
