<?xml version="1.0" encoding="utf-8"?>
<!-- Generator: Adobe Illustrator 16.0.0, SVG Export Plug-In . SVG Version: 6.00 Build 0)  -->
<!DOCTYPE svg PUBLIC "-//W3C//DTD SVG 1.1//EN" "http://www.w3.org/Graphics/SVG/1.1/DTD/svg11.dtd">
<svg version="1.1" id="Слой_1" xmlns="http://www.w3.org/2000/svg" xmlns:xlink="http://www.w3.org/1999/xlink" x="0px" y="0px"
	 width="392px" height="392px" viewBox="0 0 392 392" enable-background="new 0 0 392 392" xml:space="preserve">
<rect x="188" y="4" fill="#8B9196" stroke="#8B9196" stroke-width="8" stroke-miterlimit="10" width="16" height="96"/>
<rect x="188" y="292" fill="#8B9196" stroke="#8B9196" stroke-width="8" stroke-miterlimit="10" width="16" height="96"/>
<rect x="292" y="188" fill="#8B9196" stroke="#8B9196" stroke-width="8" stroke-miterlimit="10" width="96" height="16"/>
<rect x="4" y="188" fill="#8B9196" stroke="#8B9196" stroke-width="8" stroke-miterlimit="10" width="96" height="16"/>
<rect x="289.806" y="46.18" transform="matrix(-0.7071 -0.7071 0.7071 -0.7071 441.7807 371.3621)" fill="#8B9196" stroke="#8B9196" stroke-width="8" stroke-miterlimit="10" width="16" height="95.999"/>
<rect x="86.162" y="249.814" transform="matrix(-0.7071 -0.7071 0.7071 -0.7071 -49.8459 574.9795)" fill="#8B9196" stroke="#8B9196" stroke-width="8" stroke-miterlimit="10" width="16.001" height="95.999"/>
<rect x="249.819" y="289.818" transform="matrix(-0.7071 -0.7071 0.7071 -0.7071 297.8234 718.9969)" fill="#8B9196" stroke="#8B9196" stroke-width="8" stroke-miterlimit="10" width="96" height="16"/>
<rect x="46.177" y="86.174" transform="matrix(-0.7071 -0.7071 0.7071 -0.7071 94.1797 227.3582)" fill="#8B9196" stroke="#8B9196" stroke-width="8" stroke-miterlimit="10" width="96" height="16"/>
</svg>
