<?xml version="1.0" encoding="utf-8"?>
<!-- Generator: Adobe Illustrator 16.0.0, SVG Export Plug-In . SVG Version: 6.00 Build 0)  -->
<!DOCTYPE svg PUBLIC "-//W3C//DTD SVG 1.1//EN" "http://www.w3.org/Graphics/SVG/1.1/DTD/svg11.dtd">
<svg version="1.1" id="Слой_1" xmlns="http://www.w3.org/2000/svg" xmlns:xlink="http://www.w3.org/1999/xlink" x="0px" y="0px"
	 width="47.997px" height="43.003px" viewBox="0 0 47.997 43.003" enable-background="new 0 0 47.997 43.003" xml:space="preserve">
<g>
	<path fill="#4D8BCA" d="M34.701,26.062c0.614,0,1.23-0.236,1.7-0.707c0.938-0.944,0.938-2.475,0-3.418l-7.189-7.225
		c-0.113-0.114-0.238-0.217-0.373-0.306c-0.039-0.026-0.083-0.044-0.125-0.068c-0.095-0.056-0.188-0.111-0.29-0.154
		c-0.052-0.022-0.106-0.032-0.159-0.05c-0.096-0.033-0.189-0.067-0.291-0.087c-0.07-0.014-0.143-0.014-0.214-0.021
		C27.676,14.016,27.595,14,27.509,14c-0.094,0-0.182,0.017-0.273,0.028c-0.063,0.007-0.127,0.007-0.189,0.019
		c-0.109,0.022-0.213,0.059-0.316,0.094c-0.043,0.016-0.089,0.024-0.133,0.041c-0.115,0.048-0.224,0.11-0.33,0.174
		c-0.027,0.017-0.058,0.029-0.085,0.047c-0.138,0.091-0.265,0.197-0.381,0.314l-7.184,7.218c-0.938,0.944-0.938,2.474,0,3.418
		s2.462,0.944,3.4,0l3.086-3.101v18.333c0,1.335,1.077,2.417,2.405,2.417s2.404-1.082,2.404-2.417V22.252l3.088,3.103
		C33.47,25.825,34.086,26.062,34.701,26.062z M29.43,0c-7.194,0-13.731,4.22-16.778,10.663C5.62,10.987,0,16.839,0,23.985
		C0,31.339,5.95,37.32,13.268,37.32h7.071c1.328,0,2.404-1.082,2.404-2.417c0-1.334-1.076-2.417-2.404-2.417h-7.071
		c-4.664,0-8.458-3.813-8.458-8.501c0-4.688,3.794-8.502,8.458-8.502c0.213,0,0.447,0.012,0.756,0.039l1.841,0.164l0.632-1.746
		c1.968-5.446,7.167-9.105,12.934-9.105c7.586,0,13.758,6.202,13.758,13.826c0,5.76-3.611,10.974-8.983,12.972
		c-1.246,0.464-1.882,1.854-1.421,3.104c0.462,1.253,1.847,1.893,3.091,1.429c7.251-2.697,12.123-9.731,12.123-17.505
		C47.996,8.371,39.667,0,29.43,0z"/>
</g>
</svg>
