<?xml version="1.0" encoding="utf-8"?>
<!-- Generator: Adobe Illustrator 16.0.0, SVG Export Plug-In . SVG Version: 6.00 Build 0)  -->
<!DOCTYPE svg PUBLIC "-//W3C//DTD SVG 1.1//EN" "http://www.w3.org/Graphics/SVG/1.1/DTD/svg11.dtd">
<svg version="1.1" id="Слой_1" xmlns="http://www.w3.org/2000/svg" xmlns:xlink="http://www.w3.org/1999/xlink" x="0px" y="0px"
	 width="98px" height="100px" viewBox="0 0 98 100" enable-background="new 0 0 98 100" xml:space="preserve">
<g>
	<defs>
		<rect id="SVGID_1_" width="98" height="100"/>
	</defs>
	<clipPath id="SVGID_2_">
		<use xlink:href="#SVGID_1_"  overflow="visible"/>
	</clipPath>
	<path clip-path="url(#SVGID_2_)" fill="#949597" d="M49.494,4.475c1.175,0,2.128,0.953,2.128,2.128s-0.953,2.128-2.128,2.128
		c-1.175,0-2.128-0.953-2.128-2.128S48.319,4.475,49.494,4.475"/>
	<path clip-path="url(#SVGID_2_)" fill="#949597" d="M18.267,34.851l6.123-7.465c0.518-0.63,0.425-1.56-0.204-2.076
		c-0.629-0.517-1.56-0.424-2.076,0.204l-6.972,8.499c-0.481,0.586-0.439,1.443,0.098,1.979l7.593,7.591
		c0.288,0.289,0.665,0.433,1.042,0.433c0.378,0,0.755-0.144,1.043-0.433c0.576-0.576,0.576-1.51,0-2.086L18.267,34.851z"/>
	<path clip-path="url(#SVGID_2_)" fill="#949597" d="M44.093,32.998L36.5,25.406c-0.576-0.576-1.509-0.576-2.086,0
		c-0.576,0.577-0.576,1.511,0,2.087l6.647,6.646l-6.123,7.465c-0.516,0.63-0.424,1.56,0.206,2.077
		c0.274,0.225,0.605,0.334,0.935,0.334c0.427,0,0.851-0.185,1.142-0.54l6.97-8.499C44.671,34.39,44.63,33.534,44.093,32.998"/>
	<path clip-path="url(#SVGID_2_)" fill="#949597" d="M88.568,0H9.432C4.491,0,0,4.02,0,8.96v55.608C0,69.51,4.491,74,9.432,74
		h31.279c0.159,2,0.311,8.268-0.323,10.369c-1.163,1.729-13.49,5.365-24.164,7.854C15.56,92.379,15,92.854,15,93.537v4.992
		c0,0.813,0.835,1.471,1.647,1.471h64.707C82.166,100,83,99.342,83,98.529v-4.992c0-0.685-0.559-1.277-1.225-1.435
		c-10.732-2.485-23.082-6.008-24.202-7.625C56.896,82.277,56.925,76,57.039,74h31.529C93.508,74,98,69.51,98,64.568V8.96
		C98,4.02,93.508,0,88.568,0 M80,94.703V97H18v-2.298c11-2.638,24.097-6.121,25.095-9.362C43.963,82.512,43.796,76,43.657,74h10.438
		c-0.104,2-0.188,8.514,0.683,11.343C55.773,88.583,69,92.064,80,94.703 M95,64.98c0,3.325-3.695,6.02-7.02,6.02H9.02
		C5.695,71,3,68.307,3,64.98V9.019C3,5.695,5.695,3,9.02,3h78.96C91.305,3,95,5.695,95,9.019V64.98z"/>
	<path clip-path="url(#SVGID_2_)" fill="#949597" d="M88.529,12H9.471C8.659,12,8,12.659,8,13.471v44.058
		C8,58.342,8.659,59,9.471,59h79.058C89.342,59,90,58.342,90,57.529V13.471C90,12.659,89.342,12,88.529,12 M11,15h37v41H11V15z
		 M87,56H51V15h36V56z"/>
	<path clip-path="url(#SVGID_2_)" fill="#949597" d="M54.5,36h29c0.828,0,1.5-0.671,1.5-1.5v-16c0-0.829-0.672-1.5-1.5-1.5h-29
		c-0.828,0-1.5,0.671-1.5,1.5v16C53,35.329,53.672,36,54.5,36 M56,20h26v13H56V20z"/>
	<path clip-path="url(#SVGID_2_)" fill="#949597" d="M83,39H55c-0.828,0-1.5,0.671-1.5,1.5S54.172,42,55,42h28
		c0.828,0,1.5-0.671,1.5-1.5S83.828,39,83,39"/>
	<path clip-path="url(#SVGID_2_)" fill="#949597" d="M83,45H55c-0.828,0-1.5,0.671-1.5,1.5S54.172,48,55,48h28
		c0.828,0,1.5-0.671,1.5-1.5S83.828,45,83,45"/>
	<path clip-path="url(#SVGID_2_)" fill="#949597" d="M83,51H55c-0.828,0-1.5,0.672-1.5,1.5S54.172,54,55,54h28
		c0.828,0,1.5-0.672,1.5-1.5S83.828,51,83,51"/>
</g>
</svg>
