<?xml version="1.0" encoding="utf-8"?>
<!-- Generator: Adobe Illustrator 16.0.0, SVG Export Plug-In . SVG Version: 6.00 Build 0)  -->
<!DOCTYPE svg PUBLIC "-//W3C//DTD SVG 1.1//EN" "http://www.w3.org/Graphics/SVG/1.1/DTD/svg11.dtd">
<svg version="1.1" id="Слой_1" xmlns="http://www.w3.org/2000/svg" xmlns:xlink="http://www.w3.org/1999/xlink" x="0px" y="0px"
	 width="96.023px" height="115.001px" viewBox="0 0 96.023 115.001" enable-background="new 0 0 96.023 115.001"
	 xml:space="preserve">
<path fill="#949597" stroke="#F1F0F0" stroke-miterlimit="10" d="M58.837,22.661v-1.829h5.503c1.456,0,2.636-1.162,2.636-2.596
	V8.501C66.976,4.364,63.558,1,59.356,1H36.667c-4.2,0-7.617,3.364-7.617,7.501v9.734c0,1.435,1.179,2.596,2.636,2.596h5.502v1.829
	C16.469,27.49,1,45.845,1,67.706c0,25.527,21.089,46.296,47.012,46.296c25.923,0,47.012-20.769,47.012-46.296
	C95.023,45.845,79.556,27.49,58.837,22.661z M34.323,15.64V8.501c0-1.274,1.053-2.31,2.345-2.31h22.689
	c1.293,0,2.348,1.037,2.348,2.31v7.138h-2.867v-1.514c0-1.435-1.181-2.597-2.636-2.597H39.826c-1.457,0-2.636,1.162-2.636,2.597
	v1.514H34.323z M53.565,16.722v5.021c-1.822-0.213-3.674-0.335-5.554-0.335c-1.879,0-3.729,0.122-5.55,0.335v-5.021H53.565z
	 M48.012,108.808c-23.016,0-41.739-18.439-41.739-41.104c0-22.665,18.724-41.104,41.739-41.104s41.739,18.439,41.739,41.104
	C89.751,90.369,71.027,108.808,48.012,108.808z M50.647,33.31c0-1.435-1.181-2.596-2.636-2.596
	c-20.711,0-37.562,16.594-37.562,36.992c0,1.433,1.179,2.597,2.636,2.597s2.636-1.164,2.636-2.597c0-17.533,14.485-31.8,32.29-31.8
	C49.467,35.906,50.647,34.745,50.647,33.31z M82.937,65.108c-1.455,0-2.635,1.163-2.635,2.596c0,17.534-14.485,31.798-32.29,31.798
	c-1.457,0-2.636,1.164-2.636,2.597s1.179,2.596,2.636,2.596c20.712,0,37.562-16.594,37.562-36.99
	C85.573,66.271,84.393,65.108,82.937,65.108z M57.713,75.845l10.049-23.984c0.246-0.394,0.387-0.858,0.387-1.355
	c0-1.426-1.167-2.585-2.613-2.596c-0.376-0.001-0.747,0.061-1.103,0.213L39.745,58.152c-0.648,0.265-1.164,0.772-1.431,1.411
	L28.158,83.81c-0.432,0.915-0.29,2.028,0.424,2.815c0.091,0.103,0.188,0.195,0.293,0.28c0.485,0.396,1.081,0.592,1.677,0.592
	c0.026,0,0.052,0,0.079,0c0.438-0.007,0.849-0.117,1.209-0.312l24.444-9.931C56.929,76.991,57.444,76.484,57.713,75.845z
	 M35.404,80.12l7.364-17.58l17.855-7.253l-7.365,17.58L35.404,80.12z M45.85,65.575c-1.191,1.177-1.191,3.079,0,4.253
	c1.195,1.177,3.126,1.177,4.321,0c1.192-1.174,1.192-3.076,0-4.253C48.977,64.402,47.043,64.402,45.85,65.575z"/>
</svg>
