<?xml version="1.0" encoding="utf-8"?>
<!-- Generator: Adobe Illustrator 16.0.0, SVG Export Plug-In . SVG Version: 6.00 Build 0)  -->
<!DOCTYPE svg PUBLIC "-//W3C//DTD SVG 1.1//EN" "http://www.w3.org/Graphics/SVG/1.1/DTD/svg11.dtd">
<svg version="1.1" id="Слой_1" xmlns="http://www.w3.org/2000/svg" xmlns:xlink="http://www.w3.org/1999/xlink" x="0px" y="0px"
	 width="72px" height="92px" viewBox="0 0 72 92" enable-background="new 0 0 72 92" xml:space="preserve">
<g>
	<defs>
		<rect id="SVGID_1_" x="1" y="1" width="70" height="90"/>
	</defs>
	<clipPath id="SVGID_2_">
		<use xlink:href="#SVGID_1_"  overflow="visible"/>
	</clipPath>
	<path clip-path="url(#SVGID_2_)" fill="#ACAEAF" stroke="#F0F0F0" stroke-width="2" stroke-miterlimit="10" d="M68.5,8.5H58.063
		c-1.032-2.909-3.805-5-7.063-5h-4.437C45.155,1.93,43.133,1,41.001,1h-10c-2.132,0-4.154,0.931-5.563,2.5H21
		c-3.259,0-6.03,2.092-7.063,5H3.5C2.119,8.5,1,9.619,1,11v77.5C1,89.881,2.119,91,3.5,91h65c1.381,0,2.5-1.119,2.5-2.5V11
		C71,9.619,69.881,8.5,68.5,8.5 M18.5,11c0-1.378,1.121-2.5,2.5-2.5h5.694c0.89,0,1.713-0.473,2.161-1.243
		C29.313,6.47,30.115,6,31.001,6h10c0.886,0,1.688,0.47,2.146,1.257c0.447,0.77,1.271,1.243,2.16,1.243H51
		c1.379,0,2.5,1.122,2.5,2.5s-1.121,2.5-2.5,2.5H21C19.621,13.5,18.5,12.378,18.5,11 M66,86H6V13.5h7.938
		c1.033,2.908,3.805,5,7.063,5h30c3.258,0,6.029-2.092,7.063-5H66V86z"/>
	<path clip-path="url(#SVGID_2_)" fill="#ACAEAF" stroke="#F0F0F0" stroke-width="2" stroke-miterlimit="10" d="M28.5,28.5
		c0,1.381,1.119,2.5,2.5,2.5h27.5c1.381,0,2.5-1.119,2.5-2.5S59.881,26,58.5,26H31C29.619,26,28.5,27.119,28.5,28.5"/>
	<path clip-path="url(#SVGID_2_)" fill="#ACAEAF" stroke="#F0F0F0" stroke-width="2" stroke-miterlimit="10" d="M31,41h22.5
		c1.381,0,2.5-1.119,2.5-2.5S54.881,36,53.5,36H31c-1.381,0-2.5,1.119-2.5,2.5S29.619,41,31,41"/>
	<path clip-path="url(#SVGID_2_)" fill="#ACAEAF" stroke="#F0F0F0" stroke-width="2" stroke-miterlimit="10" d="M58.5,46H31
		c-1.381,0-2.5,1.119-2.5,2.5S29.619,51,31,51h27.5c1.381,0,2.5-1.119,2.5-2.5S59.881,46,58.5,46"/>
	<path clip-path="url(#SVGID_2_)" fill="#ACAEAF" stroke="#F0F0F0" stroke-width="2" stroke-miterlimit="10" d="M31,61h22.5
		c1.381,0,2.5-1.119,2.5-2.5S54.881,56,53.5,56H31c-1.381,0-2.5,1.119-2.5,2.5S29.619,61,31,61"/>
	<path clip-path="url(#SVGID_2_)" fill="#ACAEAF" stroke="#F0F0F0" stroke-width="2" stroke-miterlimit="10" d="M58.5,66H31
		c-1.381,0-2.5,1.119-2.5,2.5S29.619,71,31,71h27.5c1.381,0,2.5-1.119,2.5-2.5S59.881,66,58.5,66"/>
	<path clip-path="url(#SVGID_2_)" fill="#ACAEAF" stroke="#F0F0F0" stroke-width="2" stroke-miterlimit="10" d="M53.5,76H31
		c-1.381,0-2.5,1.119-2.5,2.5S29.619,81,31,81h22.5c1.381,0,2.5-1.119,2.5-2.5S54.881,76,53.5,76"/>
	<path clip-path="url(#SVGID_2_)" fill="#ACAEAF" stroke="#F0F0F0" stroke-width="2" stroke-miterlimit="10" d="M21.732,26.732
		L16,32.464l-3.232-3.232c-0.977-0.977-2.559-0.977-3.535,0c-0.977,0.976-0.977,2.559,0,3.535l5,5C14.721,38.256,15.36,38.5,16,38.5
		s1.279-0.244,1.768-0.732l7.5-7.5c0.977-0.976,0.977-2.559,0-3.535C24.291,25.756,22.709,25.756,21.732,26.732"/>
	<path clip-path="url(#SVGID_2_)" fill="#ACAEAF" stroke="#F0F0F0" stroke-width="2" stroke-miterlimit="10" d="M21.732,66.732
		L16,72.465l-3.232-3.231c-0.977-0.978-2.559-0.978-3.535,0c-0.976,0.977-0.977,2.559,0,3.534l5,5C14.721,78.256,15.36,78.5,16,78.5
		s1.279-0.244,1.768-0.732l7.5-7.5c0.977-0.977,0.977-2.559,0-3.534C24.291,65.757,22.709,65.756,21.732,66.732"/>
	<path clip-path="url(#SVGID_2_)" fill="#ACAEAF" stroke="#F0F0F0" stroke-width="2" stroke-miterlimit="10" d="M10.232,60.268
		C10.721,60.756,11.36,61,12,61s1.279-0.244,1.768-0.732L17,57.035l3.232,3.231C20.721,60.756,21.36,61,22,61
		s1.279-0.244,1.768-0.732c0.977-0.977,0.977-2.559,0-3.534L20.535,53.5l3.232-3.232c0.977-0.977,0.977-2.559,0-3.534
		c-0.977-0.977-2.559-0.978-3.535,0L17,49.965l-3.232-3.231c-0.977-0.978-2.559-0.978-3.535,0c-0.976,0.977-0.977,2.559,0,3.534
		l3.232,3.232l-3.232,3.232C9.256,57.709,9.256,59.291,10.232,60.268"/>
</g>
</svg>
