<?xml version="1.0" encoding="utf-8"?>
<!-- Generator: Adobe Illustrator 16.0.0, SVG Export Plug-In . SVG Version: 6.00 Build 0)  -->
<!DOCTYPE svg PUBLIC "-//W3C//DTD SVG 1.1//EN" "http://www.w3.org/Graphics/SVG/1.1/DTD/svg11.dtd">
<svg version="1.1" id="Слой_1" xmlns="http://www.w3.org/2000/svg" xmlns:xlink="http://www.w3.org/1999/xlink" x="0px" y="0px"
	 width="62.12px" height="59.9px" viewBox="0 0 62.12 59.9" enable-background="new 0 0 62.12 59.9" xml:space="preserve">
<g>
	<defs>
		<rect id="SVGID_1_" width="62.119" height="59.9"/>
	</defs>
	<clipPath id="SVGID_2_">
		<use xlink:href="#SVGID_1_"  overflow="visible"/>
	</clipPath>
	
		<rect x="0.76" y="0.65" clip-path="url(#SVGID_2_)" fill="none" stroke="#7B7C7D" stroke-width="1.3" stroke-linejoin="bevel" stroke-miterlimit="10" width="60.4" height="58.6"/>
	
		<path clip-path="url(#SVGID_2_)" fill="none" stroke="#7B7C7D" stroke-width="1.3" stroke-linejoin="bevel" stroke-miterlimit="10" d="
		M61.659,33.15c-8.399-5.1-8.5-17.6-0.199-22.8c0.1,0,0.199-0.1,0.199-0.1"/>
	
		<path clip-path="url(#SVGID_2_)" fill="none" stroke="#7B7C7D" stroke-width="1.3" stroke-linejoin="bevel" stroke-miterlimit="10" d="
		M0.459,33.15c8.4-5.1,8.5-17.6,0.2-22.8c-0.1,0-0.2-0.1-0.2-0.1"/>
	
		<circle clip-path="url(#SVGID_2_)" fill="none" stroke="#7B7C7D" stroke-width="1.3" stroke-linejoin="bevel" stroke-miterlimit="10" cx="31.06" cy="21.65" r="13.4"/>
	
		<line clip-path="url(#SVGID_2_)" fill="none" stroke="#7B7C7D" stroke-width="1.3" stroke-linejoin="bevel" stroke-miterlimit="10" x1="18.859" y1="42.05" x2="38.76" y2="42.05"/>
	
		<line clip-path="url(#SVGID_2_)" fill="none" stroke="#7B7C7D" stroke-width="1.3" stroke-linejoin="bevel" stroke-miterlimit="10" x1="18.859" y1="46.45" x2="42.859" y2="46.45"/>
	
		<line clip-path="url(#SVGID_2_)" fill="none" stroke="#7B7C7D" stroke-width="1.3" stroke-linejoin="bevel" stroke-miterlimit="10" x1="18.859" y1="50.55" x2="33.159" y2="50.55"/>
	
		<polyline clip-path="url(#SVGID_2_)" fill="none" stroke="#7B7C7D" stroke-width="1.3" stroke-linejoin="bevel" stroke-miterlimit="10" points="
		48.96,25.05 51.359,21.75 48.96,18.55 	"/>
	
		<polyline clip-path="url(#SVGID_2_)" fill="none" stroke="#7B7C7D" stroke-width="1.3" stroke-linejoin="bevel" stroke-miterlimit="10" points="
		13.16,25.05 10.76,21.75 13.16,18.55 	"/>
	
		<polyline clip-path="url(#SVGID_2_)" fill="none" stroke="#7B7C7D" stroke-width="1.3" stroke-linejoin="bevel" stroke-miterlimit="10" points="
		25.66,20.55 30.359,26.25 36.76,17.25 	"/>
</g>
</svg>
