<?xml version="1.0" encoding="utf-8"?>
<!-- Generator: Adobe Illustrator 16.0.0, SVG Export Plug-In . SVG Version: 6.00 Build 0)  -->
<!DOCTYPE svg PUBLIC "-//W3C//DTD SVG 1.1//EN" "http://www.w3.org/Graphics/SVG/1.1/DTD/svg11.dtd">
<svg version="1.1" id="Слой_1" xmlns="http://www.w3.org/2000/svg" xmlns:xlink="http://www.w3.org/1999/xlink" x="0px" y="0px"
	 width="96.901px" height="56.707px" viewBox="0 0 96.901 56.707" enable-background="new 0 0 96.901 56.707" xml:space="preserve">
<g>
	<defs>
		<rect id="SVGID_1_" x="0.5" y="0.5" width="95.901" height="55.706"/>
	</defs>
	<clipPath id="SVGID_2_">
		<use xlink:href="#SVGID_1_"  overflow="visible"/>
	</clipPath>
	<path clip-path="url(#SVGID_2_)" fill="#949597" d="M47.84,56.207c-2.268,0-4.428-0.868-5.696-1.704
		C39.988,53.086,24.3,39.97,22.516,38.479l-5.44-4.58c-0.844-0.712-0.948-1.977-0.236-2.82c0.704-0.84,1.968-0.952,2.82-0.244
		l5.428,4.572c8.564,7.168,17.928,14.876,19.256,15.752c0.96,0.632,2.668,1.18,4.02,1.023c1.147-0.14,1.5-0.716,1.676-1.203
		c0.229-0.624,0.752-1.097,1.408-1.253c0.656-0.163,1.328,0.017,1.828,0.465c1.18,1.08,3.023,1.176,4.244,0.699
		c0.607-0.239,1.363-0.724,1.443-1.655c0.076-0.761,0.572-1.416,1.28-1.688c0.708-0.271,1.516-0.112,2.08,0.412
		c0.572,0.524,1.924,0.508,3.028-0.04c0.611-0.304,1.619-1.008,1.491-2.248c-0.084-0.775,0.292-1.532,0.964-1.932
		c0.664-0.4,1.509-0.368,2.156,0.076c0.588,0.411,1.344,0.088,1.805-0.309c0.747-0.636,1.275-1.859,0.539-3.399
		c-2.275-4.736-14.432-16.272-21.915-21.504l-0.064,0.02c-2.124,0.772-2.356,0.84-3.932,0.996c-1.984,2.88-5.932,7.8-11.828,5.852
		c-1.868-0.616-3.144-2.02-3.596-3.96c-1.012-4.344,2.232-10.376,4.968-13.064c4.5-4.412,12.749-8.228,21.176-4.448
		C64.92,7.491,69.78,8.931,69.828,8.947c1.064,0.312,1.672,1.42,1.36,2.48c-0.313,1.06-1.416,1.672-2.48,1.356
		c-0.208-0.06-5.14-1.52-13.224-5.136c-6.597-2.948-13.144,0.124-16.748,3.656c-2.208,2.172-4.432,6.892-3.868,9.296
		c0.136,0.588,0.404,0.892,0.952,1.072c2.988,0.988,5.196-1.208,7.784-5.072c0.332-0.496,0.868-0.816,1.46-0.876L45.8,15.65
		c1.332-0.128,1.332-0.128,3.16-0.792l1.032-0.376c0.592-0.212,1.264-0.132,1.792,0.22c7.236,4.824,21.212,17.607,24.12,23.668
		c1.416,2.948,0.812,6.156-1.544,8.168c-1.164,0.996-2.54,1.508-3.916,1.452c-0.564,1.452-1.716,2.704-3.313,3.5
		c-1.655,0.819-3.483,1.032-5.076,0.664c-0.695,1.084-1.76,1.943-3.111,2.468c-2.084,0.804-4.452,0.696-6.424-0.204
		c-0.916,0.956-2.177,1.561-3.688,1.736C48.504,56.191,48.172,56.207,47.84,56.207z"/>
	<path clip-path="url(#SVGID_2_)" fill="#949597" d="M41.404,8.838c-0.072,0-0.144-0.004-0.22-0.012
		c-4.1-0.444-13.888-0.736-17.028-0.64c-0.932,0.068-2.024-0.836-2.056-1.94c-0.036-1.104,0.836-2.024,1.936-2.06
		c3.308-0.096,13.252,0.196,17.58,0.668c1.096,0.116,1.892,1.104,1.772,2.2C43.284,8.083,42.412,8.838,41.404,8.838"/>
	<path clip-path="url(#SVGID_2_)" fill="#949597" d="M74.656,40.426c-0.604,0-1.204-0.271-1.592-0.788
		c-0.668-0.88-0.5-2.132,0.384-2.804l3.916-2.968c0.88-0.664,2.136-0.5,2.8,0.384s0.5,2.14-0.384,2.804l-3.916,2.973
		C75.504,40.291,75.076,40.426,74.656,40.426"/>
	<path clip-path="url(#SVGID_2_)" fill="#949597" d="M68.82,47.447c-0.433,0-0.868-0.141-1.24-0.429
		c-2.096-1.655-13.08-11.915-13.544-12.352c-0.808-0.752-0.848-2.016-0.092-2.828c0.756-0.812,2.023-0.844,2.828-0.092
		c3.14,2.936,11.655,10.848,13.288,12.136c0.867,0.685,1.016,1.94,0.332,2.813C70,47.191,69.408,47.447,68.82,47.447"/>
	<path clip-path="url(#SVGID_2_)" fill="#949597" d="M60.952,51.415c-0.437,0-0.88-0.144-1.252-0.432
		c-2.712-2.173-10.348-9.049-11.5-10.296c-0.748-0.813-0.692-2.08,0.12-2.82c0.815-0.752,2.08-0.704,2.828,0.112
		c0.928,1.008,8.403,7.752,11.052,9.88c0.864,0.688,1.004,1.943,0.315,2.812C62.124,51.159,61.536,51.415,60.952,51.415"/>
	<path clip-path="url(#SVGID_2_)" fill="#949597" d="M51.912,53.667c-0.452,0-0.912-0.156-1.288-0.476
		c-2.604-2.196-6.188-5.772-8.584-8.336c-0.752-0.805-0.708-2.076,0.1-2.828s2.076-0.704,2.828,0.096
		c2.312,2.48,5.751,5.916,8.236,8.012c0.844,0.712,0.948,1.973,0.24,2.82C53.048,53.422,52.484,53.667,51.912,53.667"/>
	<path clip-path="url(#SVGID_2_)" fill="#949597" d="M7.636,40.831c-2.496,0-4.328-0.156-5.604-0.46
		c-0.908-0.22-1.54-1.032-1.532-1.96C0.636,23.875,4.4,3.019,4.56,2.143c0.192-1.068,1.192-1.78,2.272-1.62
		c0.52,0.084,12.848,2.004,17.924,3.776c0.864,0.304,1.42,1.148,1.336,2.06c-0.908,10.404-8.016,31.8-8.32,32.705
		c-0.252,0.752-0.92,1.279-1.708,1.352C15.88,40.434,11.648,40.831,7.636,40.831 M4.536,36.707c2.168,0.196,7.492,0.008,9.852-0.164
		c1.456-4.5,6.348-20,7.544-28.94C17.944,6.482,11.4,5.331,8.16,4.787C7.264,10.086,4.86,25.199,4.536,36.707"/>
	<path clip-path="url(#SVGID_2_)" fill="#949597" d="M87.944,39.775c-4.305,0-7.181-0.328-8.796-0.992
		c-0.572-0.236-1-0.72-1.164-1.32c-1.532-5.544-7.181-21.424-9.616-25.344c-0.304-0.488-0.388-1.084-0.216-1.64
		c0.172-0.552,0.571-1.004,1.092-1.236c0.288-0.132,7.12-3.16,14.436-3.16c1.549,0,3.028,0.144,4.396,0.412
		c0.5,0.096,0.939,0.384,1.24,0.796c4.828,6.736,6.859,27.72,7.076,30.084c0.052,0.532-0.12,1.072-0.465,1.476
		c-0.352,0.416-0.852,0.664-1.388,0.704C94.536,39.558,91.412,39.775,87.944,39.775 M81.532,35.331c1,0.216,2.899,0.448,6.416,0.448
		c1.592,0,3.107-0.053,4.256-0.097c-0.756-6.928-2.736-20.315-5.712-25.399c-0.884-0.128-1.82-0.196-2.8-0.196
		c-4.252,0-8.416,1.204-10.788,2.036C75.716,17.938,79.92,29.939,81.532,35.331"/>
</g>
</svg>
