<?xml version="1.0" encoding="utf-8"?>
<!-- Generator: Adobe Illustrator 16.0.0, SVG Export Plug-In . SVG Version: 6.00 Build 0)  -->
<!DOCTYPE svg PUBLIC "-//W3C//DTD SVG 1.1//EN" "http://www.w3.org/Graphics/SVG/1.1/DTD/svg11.dtd">
<svg version="1.1" id="Слой_1" xmlns="http://www.w3.org/2000/svg" xmlns:xlink="http://www.w3.org/1999/xlink" x="0px" y="0px"
	 width="88.72px" height="121.047px" viewBox="0 0 88.72 121.047" enable-background="new 0 0 88.72 121.047" xml:space="preserve">
<g>
	<defs>
		<rect id="SVGID_1_" width="88.72" height="121.047"/>
	</defs>
	<clipPath id="SVGID_2_">
		<use xlink:href="#SVGID_1_"  overflow="visible"/>
	</clipPath>
	<path clip-path="url(#SVGID_2_)" fill-rule="evenodd" clip-rule="evenodd" fill="#C5DCEF" d="M88.72,15.165v101.407
		c0,2.462-2.013,4.475-4.475,4.475h-69.08c-2.461,0-4.474-2.013-4.474-4.475V15.165c0-2.461,2.013-4.475,4.474-4.475h69.08
		C86.707,10.69,88.72,12.704,88.72,15.165"/>
	<path clip-path="url(#SVGID_2_)" fill-rule="evenodd" clip-rule="evenodd" fill="#A6C5DD" d="M88.72,15.165v101.407
		c0,2.462-2.013,4.475-4.475,4.475h-34.54V10.69h34.54C86.707,10.69,88.72,12.704,88.72,15.165"/>
	<path clip-path="url(#SVGID_2_)" fill-rule="evenodd" clip-rule="evenodd" fill="#313D46" d="M88.72,15.165v11.339H10.691V15.165
		c0-2.461,2.013-4.475,4.474-4.475h69.08C86.707,10.69,88.72,12.704,88.72,15.165"/>
	<path clip-path="url(#SVGID_2_)" fill-rule="evenodd" clip-rule="evenodd" fill="#212D3A" d="M88.72,15.165v11.339H49.705V10.69
		h34.54C86.707,10.69,88.72,12.704,88.72,15.165"/>
	
		<rect x="15.039" y="26.504" clip-path="url(#SVGID_2_)" fill-rule="evenodd" clip-rule="evenodd" fill="#FFFFFF" width="69.334" height="90.001"/>
	
		<rect x="49.706" y="26.504" clip-path="url(#SVGID_2_)" fill-rule="evenodd" clip-rule="evenodd" fill="#EDF6FC" width="34.667" height="90.001"/>
	<path clip-path="url(#SVGID_2_)" fill-rule="evenodd" clip-rule="evenodd" fill="#DBDEE1" d="M16.939,16.966
		c0.523,0,0.998,0.214,1.342,0.558l0.001,0.001h0.001c0.343,0.344,0.556,0.819,0.556,1.342c0,0.525-0.213,1-0.556,1.344
		c-0.343,0.343-0.819,0.557-1.344,0.557c-0.524,0-1-0.214-1.344-0.557c-0.343-0.344-0.556-0.819-0.556-1.344
		c0-0.523,0.213-0.998,0.556-1.342h0.001l0.001-0.001C15.942,17.18,16.416,16.966,16.939,16.966"/>
	<path clip-path="url(#SVGID_2_)" fill-rule="evenodd" clip-rule="evenodd" fill="#DBDEE1" d="M22.033,16.966
		c0.523,0,0.997,0.214,1.342,0.558l0.001,0.001h0.001c0.343,0.344,0.556,0.819,0.556,1.342c0,0.525-0.212,1-0.556,1.344
		c-0.344,0.343-0.819,0.557-1.344,0.557c-0.524,0-0.999-0.214-1.344-0.557c-0.343-0.344-0.555-0.819-0.555-1.344
		c0-0.523,0.212-0.998,0.555-1.342h0.002v-0.001C21.036,17.18,21.51,16.966,22.033,16.966"/>
	<path clip-path="url(#SVGID_2_)" fill-rule="evenodd" clip-rule="evenodd" fill="#DBDEE1" d="M26.979,16.966
		c0.522,0,0.997,0.214,1.342,0.558v0.001h0.002c0.343,0.344,0.555,0.819,0.555,1.342c0,0.525-0.212,1-0.555,1.344
		c-0.345,0.343-0.82,0.557-1.344,0.557c-0.525,0-1.001-0.214-1.344-0.557c-0.345-0.344-0.556-0.819-0.556-1.344
		c0-0.523,0.212-0.998,0.556-1.342h0.001v-0.001C25.981,17.18,26.456,16.966,26.979,16.966"/>
	<path clip-path="url(#SVGID_2_)" fill-rule="evenodd" clip-rule="evenodd" fill="#98ABB8" d="M80.789,10.69v97.95
		c0,2.461-2.016,4.475-4.476,4.475H10.69V10.69H80.789z"/>
	
		<rect x="10.691" y="10.69" clip-path="url(#SVGID_2_)" fill-rule="evenodd" clip-rule="evenodd" fill="#B1BCC6" width="39.015" height="102.425"/>
	
		<rect x="49.706" y="10.69" clip-path="url(#SVGID_2_)" fill-rule="evenodd" clip-rule="evenodd" fill="#313D46" width="31.083" height="15.814"/>
	<path clip-path="url(#SVGID_2_)" fill-rule="evenodd" clip-rule="evenodd" fill="#FFFFFF" d="M36.624,16.242h46.813
		c0.515,0,0.936,0.421,0.936,0.936v3.379c0,0.515-0.421,0.935-0.936,0.935H36.624c-0.515,0-0.935-0.42-0.935-0.935v-3.379
		C35.688,16.663,36.108,16.242,36.624,16.242"/>
	<path clip-path="url(#SVGID_2_)" fill-rule="evenodd" clip-rule="evenodd" fill="#B1BCC6" d="M36.624,16.242h44.165v5.25H36.624
		c-0.515,0-0.935-0.42-0.935-0.935v-3.379C35.688,16.663,36.108,16.242,36.624,16.242"/>
	<path clip-path="url(#SVGID_2_)" fill-rule="evenodd" clip-rule="evenodd" fill="#CDE5F7" d="M78.03,4.475v101.407
		c0,2.461-2.015,4.475-4.476,4.475H4.474c-2.46,0-4.474-2.014-4.474-4.475V4.475C0,2.014,2.014,0,4.474,0h69.081
		C76.016,0,78.03,2.014,78.03,4.475"/>
	<path clip-path="url(#SVGID_2_)" fill-rule="evenodd" clip-rule="evenodd" fill="#B9D4EA" d="M78.03,4.475v101.407
		c0,2.461-2.015,4.475-4.476,4.475h-34.54V0h34.54C76.016,0,78.03,2.014,78.03,4.475"/>
	<path clip-path="url(#SVGID_2_)" fill-rule="evenodd" clip-rule="evenodd" fill="#323A43" d="M78.03,4.475v11.339H0V4.475
		C0,2.014,2.014,0,4.474,0h69.081C76.016,0,78.03,2.014,78.03,4.475"/>
	<path clip-path="url(#SVGID_2_)" fill-rule="evenodd" clip-rule="evenodd" fill="#262C38" d="M78.03,4.475v11.339H39.015V0h34.54
		C76.016,0,78.03,2.014,78.03,4.475"/>
	
		<rect x="4.348" y="15.814" clip-path="url(#SVGID_2_)" fill-rule="evenodd" clip-rule="evenodd" fill="#FFFFFF" width="69.333" height="90"/>
	
		<rect x="39.015" y="15.814" clip-path="url(#SVGID_2_)" fill-rule="evenodd" clip-rule="evenodd" fill="#E1EAEF" width="34.667" height="90"/>
	<path clip-path="url(#SVGID_2_)" fill-rule="evenodd" clip-rule="evenodd" fill="#DBDEE1" d="M6.249,6.275
		c0.523,0,0.998,0.214,1.342,0.558l0.001,0.001c0.344,0.344,0.557,0.819,0.557,1.342c0,0.524-0.213,0.999-0.557,1.344
		c-0.343,0.343-0.819,0.556-1.343,0.556s-1-0.213-1.344-0.556C4.562,9.175,4.349,8.7,4.349,8.176c0-0.523,0.213-0.998,0.556-1.342
		l0.001-0.001h0.001C5.251,6.489,5.726,6.275,6.249,6.275"/>
	<path clip-path="url(#SVGID_2_)" fill-rule="evenodd" clip-rule="evenodd" fill="#DBDEE1" d="M11.343,6.275
		c0.523,0,0.997,0.214,1.342,0.558l0.001,0.001c0.344,0.344,0.557,0.819,0.557,1.342c0,0.524-0.213,0.999-0.557,1.344
		c-0.343,0.343-0.818,0.556-1.343,0.556s-1-0.213-1.344-0.556C9.655,9.175,9.443,8.7,9.443,8.176c0-0.523,0.212-0.998,0.556-1.342
		L10,6.833C10.345,6.489,10.82,6.275,11.343,6.275"/>
	<path clip-path="url(#SVGID_2_)" fill-rule="evenodd" clip-rule="evenodd" fill="#DBDEE1" d="M16.288,6.275
		c0.523,0,0.997,0.214,1.342,0.558h0.001l0.001,0.001c0.344,0.344,0.556,0.819,0.556,1.342c0,0.524-0.212,0.999-0.556,1.344
		c-0.344,0.343-0.819,0.556-1.344,0.556c-0.524,0-0.999-0.213-1.343-0.556c-0.344-0.345-0.557-0.82-0.557-1.344
		c0-0.523,0.213-0.998,0.557-1.342V6.833h0.001C15.291,6.489,15.766,6.275,16.288,6.275"/>
	<path clip-path="url(#SVGID_2_)" fill-rule="evenodd" clip-rule="evenodd" fill="#105DA8" d="M13.783,25.358h25.232v13.439H13.783
		c-1.15,0-2.092-0.943-2.092-2.094v-9.252C11.691,26.299,12.633,25.358,13.783,25.358"/>
	<path clip-path="url(#SVGID_2_)" fill-rule="evenodd" clip-rule="evenodd" fill="#0E4777" d="M64.247,25.358H39.015v13.439h25.232
		c1.15,0,2.092-0.943,2.092-2.094v-9.252C66.339,26.299,65.397,25.358,64.247,25.358"/>
	<path clip-path="url(#SVGID_2_)" fill-rule="evenodd" clip-rule="evenodd" fill="#2A5070" d="M45.644,49.435h19.466
		c0.676,0,1.229,0.554,1.229,1.229v1.826c0,0.675-0.553,1.23-1.229,1.23H45.644c-0.675,0-1.229-0.554-1.229-1.23v-1.826
		C44.415,49.988,44.968,49.435,45.644,49.435"/>
	<path clip-path="url(#SVGID_2_)" fill-rule="evenodd" clip-rule="evenodd" fill="#2A5070" d="M45.644,57.428h19.466
		c0.676,0,1.229,0.555,1.229,1.229v1.825c0,0.676-0.553,1.23-1.229,1.23H45.644c-0.675,0-1.229-0.553-1.229-1.23v-1.825
		C44.415,57.981,44.968,57.428,45.644,57.428"/>
	<path clip-path="url(#SVGID_2_)" fill-rule="evenodd" clip-rule="evenodd" fill="#2A5070" d="M45.644,79.255h19.466
		c0.676,0,1.229,0.554,1.229,1.229v1.826c0,0.676-0.553,1.229-1.229,1.229H45.644c-0.675,0-1.229-0.553-1.229-1.229v-1.826
		C44.415,79.808,44.968,79.255,45.644,79.255"/>
	<path clip-path="url(#SVGID_2_)" fill-rule="evenodd" clip-rule="evenodd" fill="#2A5070" d="M45.644,87.247h19.466
		c0.676,0,1.229,0.554,1.229,1.23v1.824c0,0.676-0.553,1.229-1.229,1.229H45.644c-0.675,0-1.229-0.554-1.229-1.229v-1.824
		C44.415,87.8,44.968,87.247,45.644,87.247"/>
	<path clip-path="url(#SVGID_2_)" fill="#1E1E1E" d="M23.787,73.988c2.417,0.107,4.639,0.973,6.439,2.361
		c-0.539-0.414-1.113-0.779-1.715-1.091C27.058,74.506,25.447,74.063,23.787,73.988 M32.592,78.814
		c1.317,1.86,2.092,4.13,2.092,6.578c0,3.145-1.279,5.996-3.344,8.063l-0.011,0.009c-2.066,2.066-4.917,3.345-8.061,3.345
		c-3.145,0-5.996-1.278-8.062-3.345l-0.01-0.009c-2.04-2.041-3.312-4.847-3.344-7.943c0.003,0.179,0.013,0.391,0.029,0.632v0.01
		c0.014,0.207,0.04,0.457,0.078,0.744l5.113-0.666c-0.013-0.098-0.026-0.24-0.038-0.422h-0.001c-0.006-0.08-0.008-0.187-0.008-0.327
		c0.025,1.692,0.716,3.219,1.823,4.33c1.129,1.126,2.692,1.823,4.42,1.823s3.29-0.697,4.419-1.823
		c1.127-1.13,1.824-2.692,1.824-4.42c0-1.345-0.422-2.59-1.141-3.608L32.592,78.814z M27.068,80.431
		c-0.058-0.044-0.116-0.088-0.175-0.129C26.952,80.345,27.01,80.387,27.068,80.431 M26.887,80.298
		c-0.236-0.167-0.483-0.319-0.741-0.452c-0.347-0.18-0.713-0.327-1.092-0.438C25.718,79.603,26.336,79.907,26.887,80.298"/>
	<path clip-path="url(#SVGID_2_)" fill="#71ABDB" d="M11.959,86.897c-0.039-0.288-0.064-0.537-0.079-0.745v-0.009
		c-0.019-0.297-0.029-0.549-0.029-0.751c0-3.145,1.279-5.996,3.344-8.063l0.01-0.01c2.066-2.065,4.917-3.344,8.063-3.344v5.173
		c-1.728,0-3.291,0.697-4.42,1.823c-1.127,1.13-1.824,2.692-1.824,4.42c0,0.184,0.003,0.323,0.009,0.417h0.001
		c0.011,0.182,0.025,0.324,0.037,0.422L11.959,86.897z"/>
	<path clip-path="url(#SVGID_2_)" fill="#B0CCE2" d="M23.268,73.977c1.844,0,3.639,0.451,5.243,1.282
		c1.605,0.831,3.012,2.042,4.081,3.556l-4.222,2.97c-0.585-0.827-1.352-1.487-2.224-1.938c-0.87-0.451-1.856-0.696-2.878-0.696
		V73.977z"/>
	<path clip-path="url(#SVGID_2_)" fill="#0C4472" d="M32.488,78.679c0.718,0.986,1.267,2.062,1.631,3.183
		c0.372,1.143,0.565,2.335,0.565,3.531c0,3.145-1.278,5.996-3.344,8.063l-0.01,0.009c-2.066,2.066-4.917,3.345-8.062,3.345v-5.173
		c1.728,0,3.29-0.697,4.42-1.823c1.126-1.13,1.823-2.692,1.823-4.42c0-0.67-0.103-1.323-0.302-1.936
		c-0.206-0.635-0.504-1.225-0.883-1.748L32.488,78.679z"/>
	<path clip-path="url(#SVGID_2_)" fill-rule="evenodd" clip-rule="evenodd" fill="#FFFFFF" d="M25.933,5.552h46.814
		c0.514,0,0.935,0.42,0.935,0.936v3.378c0,0.516-0.421,0.935-0.935,0.935H25.933c-0.514,0-0.935-0.419-0.935-0.935V6.488
		C24.998,5.972,25.418,5.552,25.933,5.552"/>
	<path clip-path="url(#SVGID_2_)" fill-rule="evenodd" clip-rule="evenodd" fill="#CEE0EF" d="M12.088,57.26h5.04
		c0.219,0,0.397,0.178,0.397,0.396v6.366c0,0.218-0.179,0.396-0.397,0.396h-5.04c-0.218,0-0.397-0.178-0.397-0.396v-6.366
		C11.691,57.438,11.869,57.26,12.088,57.26"/>
	<path clip-path="url(#SVGID_2_)" fill-rule="evenodd" clip-rule="evenodd" fill="#0E4A7C" d="M20.748,53.072h5.041
		c0.218,0,0.396,0.178,0.396,0.396v10.553c0,0.217-0.178,0.396-0.396,0.396h-5.041c-0.218,0-0.397-0.178-0.397-0.396V53.468
		C20.351,53.25,20.529,53.072,20.748,53.072"/>
	<path clip-path="url(#SVGID_2_)" fill-rule="evenodd" clip-rule="evenodd" fill="#CEE0EF" d="M29.407,46.729h5.041
		c0.218,0,0.397,0.179,0.397,0.395v16.897c0,0.219-0.179,0.396-0.397,0.396h-5.041c-0.218,0-0.397-0.177-0.397-0.396V47.125
		C29.01,46.909,29.188,46.729,29.407,46.729"/>
	
		<rect x="51.624" y="70.554" transform="matrix(-0.8659 0.5002 -0.5002 -0.8659 137.6788 114.8968)" clip-path="url(#SVGID_2_)" fill-rule="evenodd" clip-rule="evenodd" fill="#323A43" width="3.631" height="10.697"/>
	<polygon clip-path="url(#SVGID_2_)" fill-rule="evenodd" clip-rule="evenodd" fill="#323A43" points="52.274,73.885 47.594,79.009 
		46.804,64.41 59.053,72.394 	"/>
	<polygon clip-path="url(#SVGID_2_)" fill-rule="evenodd" clip-rule="evenodd" fill="#262C38" points="52.274,73.885 59.053,72.394 
		46.804,64.41 	"/>
</g>
</svg>
