<?xml version="1.0" encoding="utf-8"?>
<!-- Generator: Adobe Illustrator 16.0.0, SVG Export Plug-In . SVG Version: 6.00 Build 0)  -->
<!DOCTYPE svg PUBLIC "-//W3C//DTD SVG 1.1//EN" "http://www.w3.org/Graphics/SVG/1.1/DTD/svg11.dtd">
<svg version="1.1" id="Слой_1" xmlns="http://www.w3.org/2000/svg" xmlns:xlink="http://www.w3.org/1999/xlink" x="0px" y="0px"
	 width="81.987px" height="80.992px" viewBox="0 0 81.987 80.992" enable-background="new 0 0 81.987 80.992" xml:space="preserve">
<path fill="#ADAEAF" stroke="#F1F0F0" stroke-miterlimit="10" d="M43.943,48.649C54.53,42.474,65.119,36.3,75.706,30.127
	L75.7,32.183l-0.04,13.974l-0.018,5.772l-0.004,1.652c-5.575,3.394-11.148,6.785-16.722,10.178
	c-5.014,3.053-10.028,6.105-15.044,9.156L43.943,48.649z M38.582,48.637l-0.07,24.399c-0.608-0.354-1.216-0.71-1.825-1.063
	C26.556,66.076,16.425,60.179,6.293,54.281l0.062-21.56l0.009-3.112C17.104,35.951,27.842,42.293,38.582,48.637 M41.275,43.985
	c-0.072-0.041-0.141-0.08-0.223-0.128c-1.436-0.849-2.873-1.698-4.311-2.546c-3.039-1.796-6.076-3.59-9.114-5.383
	c10.226-6.469,20.45-12.936,30.677-19.404c3.715,2.229,7.431,4.456,11.146,6.685c1.226,0.734,2.451,1.469,3.677,2.202
	C62.51,31.604,51.894,37.795,41.275,43.985 M41.367,6.371c1.282,0.77,2.564,1.539,3.849,2.31c2.642,1.582,5.282,3.166,7.921,4.75
	c-10.231,6.478-20.466,12.955-30.7,19.434c-4.468-2.641-8.935-5.279-13.403-7.919c0.889-0.509,1.776-1.021,2.665-1.529
	c8.129-4.669,16.259-9.339,24.386-14.009C37.844,8.393,39.605,7.384,41.367,6.371 M81.035,40.902l0.045-15.701
	c0.009-2.728-6.576-5.219-8.361-6.289C62.654,12.882,52.449,7.035,42.51,0.8c-0.665-0.418-1.561-0.382-2.227,0.001
	c-10.032,5.764-20.067,11.53-30.1,17.292c-2.004,1.154-8.359,3.348-9.084,5.956c-1.277,4.586-0.112,10.986-0.125,15.694
	L0.927,56.016c-0.008,2.788,6.429,5.098,8.279,6.172c10.289,5.992,20.581,11.979,30.871,17.97c0.081,0.046,0.162,0.087,0.24,0.123
	c0.567,0.288,1.268,0.314,1.989-0.123c9.881-6.018,19.763-12.034,29.645-18.051c1.992-1.213,8.239-3.547,8.964-6.159
	C82.138,51.548,81.021,45.419,81.035,40.902"/>
</svg>
